<svg xmlns="http://www.w3.org/2000/svg" viewBox="0 0 153.03 153.03"><defs><style>.cls-1{fill:#231f20;stroke:#231f20;stroke-miterlimit:10;}.cls-2{font-size:10px;font-family:Optima-ExtraBlack, Optima;font-weight:900;}.cls-2,.cls-8{fill:#fff;}.cls-3,.cls-5{letter-spacing:0.01em;}.cls-4{letter-spacing:0em;}.cls-5,.cls-6{fill:#939598;}.cls-7{font-size:6px;font-family:Optima-Regular, Optima;font-weight:400;}.cls-7,.cls-9{fill:#fbb040;}</style></defs><title>Asset 1</title><g id="Layer_2" data-name="Layer 2"><g id="Layer_1-2" data-name="Layer 1"><circle class="cls-1" cx="76.52" cy="76.52" r="76.02"/><text class="cls-2" transform="translate(39.03 107.1)">SHAKI<tspan class="cls-3" x="32.59" y="0">R</tspan><tspan class="cls-4" x="40.1" y="0">A</tspan><tspan class="cls-5" x="47.32" y="0">R</tspan><tspan class="cls-6" x="54.83" y="0">AE</tspan><tspan class="cls-7"><tspan x="0" y="7.2">DESIGNS</tspan></tspan></text><path class="cls-8" d="M62.37,69.27c0,1.1-.76,1.52-1.7.94l-9.75-6.09a4,4,0,0,1-1.69-3.06V39.91a2,2,0,0,1,2-2h9.14a2,2,0,0,1,2,2Z"/><path class="cls-9" d="M103.81,70.48c0,1.1-.76,1.51-1.68.92l-9.79-6.33A4.13,4.13,0,0,1,90.66,62V39.91a2,2,0,0,1,2-2h9.15a2,2,0,0,1,2,2Z"/><path class="cls-6" d="M83.09,83c0,1.1-.68,1.41-1.5.68L71.45,74.7a5,5,0,0,1-1.51-3.32V39.91a2,2,0,0,1,2-2h9.15a2,2,0,0,1,2,2Z"/></g></g></svg>